<svg xmlns="http://www.w3.org/2000/svg" width="21" height="13" viewBox="0 0 21 13" fill="none">
    <path opacity="0.4"
          d="M10.5038 13C4.37212 13 0 8.04726 0 6.5C0 4.94516 4.3798 0 10.5038 0C16.7047 0 21 4.94516 21 6.5C21 8.04726 16.7124 13 10.5038 13ZM10.5038 11.8016C15.5445 11.8016 19.6553 7.56943 19.6553 6.5C19.6553 5.59743 15.5445 1.19837 10.5038 1.19837C5.44786 1.19837 1.34468 5.59743 1.34468 6.5C1.34468 7.56943 5.44786 11.8016 10.5038 11.8016ZM10.5038 10.7474C8.09879 10.7474 6.19319 8.8133 6.18551 6.5C6.17014 4.12602 8.09879 2.25263 10.5038 2.25263C12.8935 2.25263 14.8145 4.12602 14.8145 6.5C14.8145 8.8133 12.8935 10.7474 10.5038 10.7474Z"
          fill="#FEFAEB"/>
</svg>