<svg xmlns="http://www.w3.org/2000/svg" width="41" height="45" viewBox="0 0 41 45" fill="none">
    <mask id="path-1-inside-1_183_1487" fill="white">
        <path fill-rule="evenodd" clip-rule="evenodd"
              d="M20.5 0C9.34535 0 0.271535 8.9091 0.00598162 19.9999H0V20.5V24.5V44.9999H20.4221C20.448 45 20.474 45 20.5 45C20.526 45 20.552 45 20.5779 44.9999H41V24.5V20.5V19.9999H40.994C40.7285 8.9091 31.6546 0 20.5 0Z"/>
    </mask>
    <path d="M0.00598162 19.9999V21.9999H1.95867L2.00541 20.0477L0.00598162 19.9999ZM0 19.9999V17.9999H-2V19.9999H0ZM0 44.9999H-2V46.9999H0V44.9999ZM20.4221 44.9999L20.4294 42.9999H20.4221V44.9999ZM20.5779 44.9999V42.9998L20.5706 42.9999L20.5779 44.9999ZM41 44.9999V46.9999H43V44.9999H41ZM41 19.9999H43V17.9999H41V19.9999ZM40.994 19.9999L38.9946 20.0477L39.0413 21.9999H40.994V19.9999ZM2.00541 20.0477C2.24503 10.04 10.4339 2 20.5 2V-2C8.25682 -2 -1.70196 7.77824 -1.99345 19.952L2.00541 20.0477ZM0 21.9999H0.00598162V17.9999H0V21.9999ZM2 20.5V19.9999H-2V20.5H2ZM2 24.5V20.5H-2V24.5H2ZM2 44.9999V24.5H-2V44.9999H2ZM20.4221 42.9999H0V46.9999H20.4221V42.9999ZM20.5 43C20.4766 43 20.453 43 20.4294 42.9999L20.4147 46.9998C20.443 46.9999 20.4715 47 20.5 47V43ZM20.5706 42.9999C20.547 43 20.5234 43 20.5 43V47C20.5285 47 20.557 46.9999 20.5853 46.9998L20.5706 42.9999ZM41 42.9999H20.5779V46.9999H41V42.9999ZM39 24.5V44.9999H43V24.5H39ZM39 20.5V24.5H43V20.5H39ZM39 19.9999V20.5H43V19.9999H39ZM40.994 21.9999H41V17.9999H40.994V21.9999ZM20.5 2C30.5661 2 38.755 10.04 38.9946 20.0477L42.9934 19.952C42.702 7.77824 32.7432 -2 20.5 -2V2Z"
          fill="#FEFAEB" mask="url(#path-1-inside-1_183_1487)"/>
</svg>