<svg xmlns="http://www.w3.org/2000/svg" width="221" height="280" viewBox="0 0 221 280" fill="none">
    <g clip-path="url(#clip0_346_15082)">
        <path d="M22.8573 87.1777C28.4944 84.7771 35.0062 87.4047 37.3949 93.045L56.3096 137.548C56.7121 136.981 57.1383 136.406 57.5591 135.859L33.96 66.0079C31.8987 59.8967 35.1682 53.2719 41.2795 51.2106C47.3907 49.1494 54.0155 52.4189 56.0767 58.5301L76.9546 120.331C77.3043 120.172 77.6625 119.997 78.0272 119.846L56.607 41.9432C54.5915 34.6133 58.8962 27.0437 66.2261 25.0282C73.5561 23.0128 81.1257 27.3174 83.1412 34.6474L105.451 115.784C106.094 115.861 106.746 115.923 107.384 116.027L96.2624 55.9106C94.9909 49.0237 99.5348 42.4166 106.419 41.1332C113.306 39.8617 119.913 44.4056 121.196 51.2894L135.792 130.231C136.521 130.944 137.251 131.658 137.94 132.408L153.678 104.733C158.213 96.7568 168.353 93.9689 176.328 98.5047C184.304 103.04 187.092 113.18 182.557 121.155L151.08 176.505C150.932 177.397 150.768 178.28 150.578 179.157L170.168 250.403L126.731 262.346L83.2945 274.29L65.0646 207.99C57.3077 201.388 51.3916 192.477 48.4869 181.913C47.5522 178.514 46.9825 175.103 46.7403 171.729L16.9899 101.715C14.5893 96.0782 17.217 89.5664 22.8573 87.1777Z"
              fill="#FEEB41" stroke="#292929" stroke-width="2" stroke-miterlimit="10"/>
        <path d="M135.055 192.884C128.348 201.368 118.987 207.865 107.762 210.952C96.5373 214.038 84.5493 213.196 74.2455 209.059"
              stroke="#292929" stroke-width="2" stroke-miterlimit="10"/>
        <path d="M138.028 132.27L131.071 144.504C125.577 154.166 128.955 166.453 138.62 171.959" stroke="#292929"
              stroke-width="2" stroke-miterlimit="10"/>
        <path d="M59.6549 133.786C65.0256 127.738 71.9912 122.967 80.2097 120.212C86.2061 118.195 92.3244 117.452 98.2753 117.809"
              stroke="#292929" stroke-width="2" stroke-miterlimit="10"/>
    </g>
    <defs>
        <clipPath id="clip0_346_15082">
            <rect width="160.694" height="246.103" fill="white"
                  transform="matrix(-0.964215 0.265122 0.265122 0.964215 154.944 0)"/>
        </clipPath>
    </defs>
</svg>