<svg xmlns="http://www.w3.org/2000/svg" width="90" height="56" viewBox="0 0 90 56" fill="none">
    <g clip-path="url(#clip0_79_11787)">
        <path d="M75.0005 0C66.7167 0 60.001 6.69278 60.001 14.9482C60.001 6.69278 53.2853 0 45.0015 0C36.7177 0 30.002 6.69278 30.002 14.9482C30.0005 6.69278 23.2848 0 14.9995 0C6.71575 0 0 6.69278 0 14.9482V55.9459H90V14.9482C90 6.69278 83.2842 0 75.0005 0Z"
              fill="#FEFAEB"/>
        <path d="M46.1123 47.1206V33.9023H52.2284C53.6151 33.9023 54.8023 34.1249 55.7917 34.5701C56.7795 35.0153 57.5426 35.7264 58.0777 36.7049C58.6129 37.6835 58.8812 38.9802 58.8812 40.5951C58.8812 42.8808 58.2981 44.5391 57.1303 45.5729C55.9626 46.6067 54.3301 47.1221 52.2284 47.1221H46.1123V47.1206ZM50.5405 43.7548H51.6933C52.2554 43.7548 52.7366 43.6726 53.1354 43.5083C53.5326 43.3439 53.8384 43.0362 54.0513 42.585C54.2641 42.1339 54.3706 41.4706 54.3706 40.5936C54.3706 39.7167 54.2746 39.0549 54.0828 38.6022C53.8909 38.1511 53.5956 37.8403 53.1968 37.6685C52.7981 37.4982 52.2974 37.4116 51.6933 37.4116H50.5405V43.7533V43.7548Z"
              fill="#292929"/>
        <path d="M62.8357 47.3258C62.2181 47.3258 61.6485 47.2167 61.1268 46.9971C60.6051 46.779 60.1869 46.4324 59.8706 45.9603C59.5543 45.4883 59.3969 44.8832 59.3969 44.1437C59.3969 43.0905 59.7402 42.2793 60.4267 41.7116C61.1133 41.1439 62.1641 40.8601 63.5777 40.8601H65.9462V40.7167C65.9462 40.4433 65.7918 40.2341 65.483 40.0907C65.1742 39.9473 64.6765 39.8756 63.99 39.8756C63.4683 39.8756 62.9092 39.9204 62.311 40.0085C61.7144 40.0982 61.1478 40.2237 60.6126 40.388V37.9051C61.1343 37.687 61.7864 37.5122 62.5689 37.3822C63.3514 37.2523 64.1204 37.1865 64.8759 37.1865C66.4679 37.1865 67.7451 37.5122 68.706 38.1621C69.6669 38.8119 70.1481 39.8352 70.1481 41.2306V47.1211H66.276L66.0901 46.3816C65.7469 46.6685 65.3106 46.8985 64.783 47.0688C64.2538 47.2391 63.6062 47.3258 62.8372 47.3258H62.8357ZM64.4427 44.8429C64.786 44.8429 65.0783 44.7846 65.3181 44.6681C65.558 44.5516 65.7678 44.4052 65.9462 44.2274V43.1801H64.5461C63.8176 43.1801 63.4548 43.461 63.4548 44.0212C63.4548 44.5814 63.7846 44.8429 64.4427 44.8429Z"
              fill="#292929"/>
        <path d="M74.4309 50.7333C73.8267 50.7333 73.3261 50.702 72.9273 50.6407C72.5286 50.5795 72.1313 50.4659 71.7326 50.3016V47.4079C71.9379 47.49 72.1403 47.5438 72.3397 47.5722C72.5391 47.5991 72.7474 47.6125 72.9678 47.6125C73.4475 47.6125 73.8223 47.5617 74.0906 47.4587C74.3589 47.3556 74.6018 47.1539 74.8221 46.8536L70.3939 37.3911H75.0275L77.0257 42.6871L78.9415 37.3911H83.5541L80.0733 46.0723C79.4962 47.5095 78.7691 48.6448 77.8907 49.4799C77.0122 50.315 75.858 50.7318 74.4309 50.7318V50.7333Z"
              fill="#292929"/>
        <path d="M14.2035 25.6983C13.7238 25.6983 13.1287 25.6594 12.4166 25.5832C11.7061 25.507 10.9985 25.395 10.297 25.2501C9.59391 25.1052 9.01228 24.9393 8.54907 24.7511V20.4994C9.30309 20.8415 10.1126 21.088 10.9775 21.2419C11.8425 21.3958 12.6175 21.472 13.3041 21.472C14.1435 21.472 14.7686 21.3734 15.1794 21.1776C15.5901 20.9819 15.7955 20.6189 15.7955 20.0886C15.7955 19.3207 15.1704 18.9368 13.9202 18.9368H11.0165L11.3508 15.3767H13.7673C14.4014 15.3767 14.8511 15.2781 15.1164 15.0824C15.3817 14.8867 15.5152 14.5745 15.5152 14.1472C15.5152 13.7543 15.3263 13.4556 14.95 13.2509C14.5723 13.0462 13.9741 12.9431 13.1512 12.9431C12.3282 12.9431 11.5742 13.0328 10.7872 13.212C9.99865 13.3913 9.33008 13.6259 8.78292 13.9157V9.66398C9.46799 9.39059 10.2985 9.16053 11.2758 8.97229C12.2517 8.78406 13.2381 8.68994 14.232 8.68994C15.6876 8.68994 16.9303 8.90357 17.9586 9.33083C18.987 9.7581 19.774 10.3348 20.3226 11.0593C20.8713 11.7854 21.1456 12.6175 21.1456 13.5557C21.1456 15.1273 20.6314 16.3299 19.6031 17.1665C20.1847 17.4399 20.6389 17.8537 20.9657 18.4079C21.291 18.9637 21.4544 19.6673 21.4544 20.5203C21.4544 21.7155 21.1366 22.697 20.504 23.4663C19.8699 24.2342 19.0094 24.7974 17.9211 25.156C16.8328 25.5145 15.5946 25.6938 14.208 25.6938L14.2035 25.6983Z"
              fill="#292929"/>
        <path d="M74.203 26.6441C73.7233 26.6441 73.1282 26.6052 72.4161 26.529C71.7056 26.4528 70.998 26.3408 70.2965 26.1959C69.5934 26.051 69.0118 25.8851 68.5486 25.6969V21.4452C69.3026 21.7873 70.1121 22.0338 70.977 22.1877C71.842 22.3416 72.617 22.4178 73.3036 22.4178C74.143 22.4178 74.7681 22.3192 75.1789 22.1234C75.5896 21.9277 75.795 21.5647 75.795 21.0344C75.795 20.2665 75.1699 19.8826 73.9197 19.8826H71.016L71.3503 16.3225H73.7668C74.4009 16.3225 74.8506 16.2239 75.1159 16.0282C75.3813 15.8325 75.5147 15.5203 75.5147 15.093C75.5147 14.7001 75.3258 14.4014 74.9495 14.1967C74.5718 13.992 73.9737 13.8889 73.1507 13.8889C72.3277 13.8889 71.5737 13.9786 70.7867 14.1578C69.9982 14.3371 69.3296 14.5717 68.7824 14.8615V10.6098C69.4675 10.3364 70.298 10.1063 71.2754 9.91809C72.2512 9.72986 73.2376 9.63574 74.2315 9.63574C75.6871 9.63574 76.9298 9.84937 77.9581 10.2766C78.9865 10.7039 79.7735 11.2806 80.3221 12.0051C80.8708 12.7312 81.1451 13.5633 81.1451 14.5015C81.1451 16.0731 80.6309 17.2757 79.6026 18.1123C80.1842 18.3857 80.6384 18.7995 80.9652 19.3537C81.2905 19.9095 81.4539 20.6131 81.4539 21.4661C81.4539 22.6613 81.1361 23.6428 80.5035 24.4121C79.8694 25.18 79.009 25.7432 77.9206 26.1018C76.8323 26.4603 75.5941 26.6396 74.2075 26.6396L74.203 26.6441Z"
              fill="#292929"/>
        <path d="M39.5614 21.7084L42.7964 17.2924L39.6829 12.9839H42.7274L44.3314 15.2741L45.9489 12.9839H48.9935L45.8799 17.2924L49.1149 21.7084H46.0298L44.3299 19.3375L42.645 21.7084H39.5599H39.5614Z"
              fill="#292929"/>
        <path d="M7.2974 51.2613V37.2633H11.1275L11.3328 37.9818C11.7166 37.695 12.1363 37.4694 12.589 37.3051C13.0418 37.1408 13.5769 37.0586 14.196 37.0586C15.6651 37.0586 16.7939 37.4485 17.5839 38.2283C18.3739 39.0082 18.7681 40.2735 18.7681 42.0259C18.7681 43.7783 18.3454 45.0601 17.5014 45.9161C16.6575 46.7721 15.4927 47.1993 14.0101 47.1993C13.5979 47.1993 13.1857 47.159 12.7749 47.0768C12.3627 46.9947 12.0134 46.8856 11.7241 46.7482V51.2643H7.2959L7.2974 51.2613ZM12.8994 44.0158C13.3386 44.0158 13.6744 43.8694 13.9082 43.5751C14.1421 43.2808 14.259 42.7788 14.259 42.0662C14.259 41.3536 14.1451 40.889 13.9187 40.6291C13.6923 40.3691 13.3596 40.2392 12.9203 40.2392C12.4811 40.2392 12.0689 40.39 11.7256 40.6903V43.6259C11.904 43.7633 12.0794 43.8619 12.2503 43.9232C12.4212 43.9844 12.6385 44.0158 12.8994 44.0158Z"
              fill="#292929"/>
        <path d="M25.5228 47.1979C24.3836 47.1979 23.3642 47.0096 22.4648 46.6332C21.5653 46.2567 20.8623 45.692 20.3541 44.9405C19.8459 44.1876 19.5926 43.2644 19.5926 42.1693C19.5926 40.6231 20.0423 39.3846 20.9417 38.4539C21.8412 37.5232 23.1903 37.0586 24.9892 37.0586C26.6231 37.0586 27.9138 37.4664 28.8612 38.2791C29.8086 39.0933 30.2823 40.2332 30.2823 41.6957V43.3794H23.6505C24.0073 44.1323 25.0102 44.5088 26.6576 44.5088C27.2617 44.5088 27.8449 44.458 28.4085 44.3549C28.9707 44.2518 29.4249 44.1323 29.7681 43.9964V46.5002C28.7938 46.9648 27.3787 47.1979 25.5258 47.1979H25.5228ZM23.649 41.0817H26.4912V40.8143C26.4912 40.5275 26.3908 40.281 26.1929 40.0748C25.9935 39.8702 25.6398 39.7671 25.1316 39.7671C24.5829 39.7671 24.1977 39.8836 23.9788 40.1167C23.7585 40.3497 23.649 40.6709 23.649 41.0817Z"
              fill="#292929"/>
        <path d="M31.516 46.9936V37.2652H35.8198L35.9232 37.942C36.2935 37.7238 36.7807 37.5252 37.3848 37.3474C37.9889 37.1696 38.6065 37.074 39.2376 37.0605V40.3233C38.8944 40.3367 38.5136 40.3711 38.0954 40.4264C37.6756 40.4816 37.2784 40.5459 36.9006 40.6221C36.5229 40.6968 36.2036 40.7894 35.9427 40.8984V46.9936H31.5145H31.516Z"
              fill="#292929"/>
    </g>
    <defs>
        <clipPath id="clip0_79_11787">
            <rect width="90" height="55.9459" fill="white"/>
        </clipPath>
    </defs>
</svg>