<svg xmlns="http://www.w3.org/2000/svg" width="206" height="163" viewBox="0 0 206 163" fill="none">
    <mask id="path-1-outside-1_419_6655" maskUnits="userSpaceOnUse" x="0" y="0" width="206" height="163" fill="black">
        <rect fill="white" width="206" height="163"/>
        <path fill-rule="evenodd" clip-rule="evenodd"
              d="M2 2H204V100.651V101.238V108.285L204 146.453V160.547H43.6918V146.453V108.285L2 108.285V101.238V100.651V2Z"/>
    </mask>
    <path fill-rule="evenodd" clip-rule="evenodd"
          d="M2 2H204V100.651V101.238V108.285L204 146.453V160.547H43.6918V146.453V108.285L2 108.285V101.238V100.651V2Z"
          fill="#E45D7E"/>
    <path d="M204 2H206V0H204V2ZM2 2V0H0V2H2ZM204 108.285H206H204ZM204 146.453H202H204ZM204 160.547V162.547H206V160.547H204ZM43.6918 160.547H41.6918V162.547H43.6918V160.547ZM43.6918 108.285H45.6918V106.285H43.6918V108.285ZM2 108.285H0V110.285H2L2 108.285ZM204 0H2V4H204V0ZM206 100.651V2H202V100.651H206ZM206 101.238V100.651H202V101.238H206ZM206 108.285V101.238H202V108.285H206ZM206 146.453L206 108.285H202L202 146.453H206ZM202 146.453V160.547H206V146.453H202ZM204 158.547H43.6918V162.547H204V158.547ZM45.6918 160.547V146.453H41.6918V160.547H45.6918ZM41.6918 108.285V146.453H45.6918V108.285H41.6918ZM2 110.285L43.6918 110.285V106.285L2 106.285L2 110.285ZM0 101.238V108.285H4V101.238H0ZM0 100.651V101.238H4V100.651H0ZM0 2V100.651H4V2H0Z"
          fill="#FEFAEB" mask="url(#path-1-outside-1_419_6655)"/>
    <path d="M49.1157 97.074V67.7497H38.5858V59.6021H70.5851V67.7497H60.0552V97.074H49.1157Z" fill="#292929"/>
    <path d="M73.4941 97.0741V59.6079H84.4336V97.0741H73.4941Z" fill="#292929"/>
    <path d="M89.6664 97.0741V59.6079H100.313L109.62 78.6307L118.868 59.6079H129.456V97.0741H118.517V78.3381L112.523 90.6707H106.646L100.594 78.3381V97.0741H89.6547H89.6664Z"
          fill="#292929"/>
    <path d="M134.701 97.0741V59.6079H163.094V67.9838H145.64V74.0945H160.94V82.5875H145.64V88.6982H163.094V97.0741H134.701Z"
          fill="#292929"/>
    <path d="M178.857 97.6592C176.334 97.6592 173.952 97.4544 171.699 97.0505C169.451 96.6408 167.531 96.073 165.939 95.3355V86.3158C167.683 87.1294 169.621 87.7908 171.757 88.2942C173.888 88.7975 175.889 89.0492 177.751 89.0492C179.612 89.0492 181.151 88.8853 182.141 88.5576C183.13 88.2298 183.621 87.4806 183.621 86.3158C183.621 85.5022 183.34 84.8642 182.779 84.396C182.217 83.9336 181.345 83.5063 180.162 83.1141C178.98 82.7278 177.435 82.242 175.538 81.6567C173.016 80.8431 171.02 79.9475 169.545 78.9818C168.07 78.0101 167.016 76.8278 166.372 75.4348C165.734 74.0358 165.412 72.3326 165.412 70.3132C165.412 66.6316 166.723 63.8279 169.34 61.9081C171.956 59.9882 175.848 59.0283 181.005 59.0283C183.06 59.0283 185.184 59.2039 187.373 59.5493C189.562 59.9004 191.336 60.2868 192.694 60.714V69.7923C190.868 69.0548 189.123 68.5339 187.455 68.2237C185.787 67.9134 184.218 67.7612 182.743 67.7612C181.034 67.7612 179.583 67.8959 178.377 68.171C177.177 68.4402 176.574 69.1426 176.574 70.2664C176.574 71.238 177.089 71.9463 178.114 72.3911C179.138 72.8359 180.976 73.4096 183.61 74.1061C186.671 74.9197 189.012 75.9089 190.622 77.0736C192.231 78.2384 193.326 79.5847 193.911 81.1182C194.491 82.6517 194.783 84.3842 194.783 86.3275C194.783 89.7399 193.466 92.485 190.827 94.5629C188.187 96.6408 184.195 97.6768 178.839 97.6768L178.857 97.6592Z"
          fill="#292929"/>
    <path d="M23.3497 52.5002C22.2373 52.5002 20.8916 52.4108 19.3068 52.232C17.7219 52.0532 16.1669 51.8088 14.6418 51.4928C13.1167 51.1769 11.8368 50.8192 10.8082 50.4258V41.5379C12.5127 42.2889 14.3368 42.8314 16.2805 43.1652C18.2242 43.499 19.9886 43.6659 21.5735 43.6659C23.7923 43.6659 25.449 43.3917 26.5375 42.8374C27.6259 42.283 28.1702 41.2577 28.1702 39.7555C28.1702 37.5439 26.4238 36.4352 22.9371 36.4352H16.4599L17.1716 28.9719H22.5842C24.3306 28.9719 25.5746 28.6977 26.3281 28.1433C27.0817 27.589 27.4585 26.7008 27.4585 25.4787C27.4585 24.3342 26.974 23.4639 25.9992 22.8738C25.0303 22.2836 23.4514 21.9856 21.2744 21.9856C19.528 21.9856 17.7697 22.1823 15.9815 22.5757C14.1992 22.9691 12.6741 23.4818 11.4062 24.1137V15.2853C12.8715 14.6952 14.6956 14.1885 16.8786 13.7772C19.0556 13.3599 21.2385 13.1572 23.4155 13.1572C26.7468 13.1572 29.5577 13.6341 31.8543 14.5819C34.1509 15.5297 35.8973 16.8352 37.0874 18.4924C38.2776 20.1496 38.8697 22.0452 38.8697 24.1792C38.8697 25.9974 38.5228 27.6545 37.8291 29.1567C37.1353 30.6589 36.1126 31.8452 34.7669 32.7095C37.9786 34.0508 39.5814 36.7213 39.5814 40.7093C39.5814 43.4335 38.8757 45.6689 37.4702 47.4035C36.0647 49.1442 34.139 50.4258 31.7048 51.2544C29.2647 52.083 26.4836 52.5002 23.3497 52.5002Z"
          fill="#292929"/>
    <path d="M178.393 151.151C177.281 151.151 175.935 151.062 174.35 150.883C172.766 150.704 171.211 150.46 169.685 150.144C168.16 149.828 166.88 149.47 165.852 149.077V140.189C167.556 140.94 169.38 141.482 171.324 141.816C173.268 142.15 175.032 142.317 176.617 142.317C178.836 142.317 180.493 142.043 181.581 141.488C182.67 140.934 183.214 139.909 183.214 138.406C183.214 136.195 181.467 135.086 177.981 135.086H171.504L172.215 127.623H177.628C179.374 127.623 180.618 127.349 181.372 126.794C182.125 126.24 182.502 125.352 182.502 124.13C182.502 122.985 182.018 122.115 181.043 121.525C180.074 120.934 178.495 120.636 176.318 120.636C174.572 120.636 172.813 120.833 171.025 121.227C169.243 121.62 167.718 122.133 166.45 122.765V113.936C167.915 113.346 169.739 112.839 171.922 112.428C174.099 112.011 176.282 111.808 178.459 111.808C181.79 111.808 184.601 112.285 186.898 113.233C189.195 114.181 190.941 115.486 192.131 117.143C193.321 118.8 193.913 120.696 193.913 122.83C193.913 124.648 193.566 126.305 192.873 127.808C192.179 129.31 191.156 130.496 189.811 131.36C193.022 132.702 194.625 135.372 194.625 139.36C194.625 142.084 193.919 144.32 192.514 146.054C191.108 147.795 189.183 149.077 186.748 149.905C184.308 150.734 181.527 151.151 178.393 151.151Z"
          fill="#292929"/>
</svg>

