<svg xmlns="http://www.w3.org/2000/svg" width="221" height="280" viewBox="0 0 221 280" fill="none">
    <g clip-path="url(#clip0_346_15088)">
        <path d="M197.615 87.1777C191.978 84.7771 185.466 87.4047 183.077 93.045L164.163 137.548C163.76 136.981 163.334 136.406 162.913 135.859L186.512 66.0079C188.574 59.8967 185.304 53.2719 179.193 51.2106C173.082 49.1494 166.457 52.4189 164.396 58.5301L143.518 120.331C143.168 120.172 142.81 119.997 142.445 119.846L163.865 41.9432C165.881 34.6133 161.576 27.0437 154.246 25.0282C146.916 23.0128 139.347 27.3174 137.331 34.6474L115.022 115.784C114.378 115.861 113.727 115.923 113.089 116.027L124.21 55.9106C125.481 49.0236 120.938 42.4166 114.054 41.1332C107.167 39.8617 100.56 44.4056 99.2764 51.2894L84.6803 130.231C83.9509 130.944 83.2215 131.658 82.5328 132.408L66.7947 104.733C62.259 96.7568 52.1198 93.9689 44.1439 98.5047C36.1679 103.04 33.3801 113.18 37.9158 121.155L69.392 176.505C69.5404 177.397 69.7039 178.28 69.8943 179.157L50.3045 250.403L137.178 274.29L155.408 207.99C163.165 201.388 169.081 192.477 171.985 181.913C172.92 178.514 173.49 175.103 173.732 171.729L203.482 101.715C205.883 96.0782 203.255 89.5664 197.615 87.1777Z"
              fill="#FEEB41" stroke="#292929" stroke-width="2" stroke-miterlimit="10"/>
        <path d="M85.4176 192.884C92.1243 201.368 101.485 207.865 112.71 210.952C123.935 214.038 135.923 213.196 146.227 209.059"
              stroke="#292929" stroke-width="2" stroke-miterlimit="10"/>
        <path d="M82.444 132.27L89.4016 144.504C94.8958 154.166 91.5172 166.453 81.8526 171.959" stroke="#292929"
              stroke-width="2" stroke-miterlimit="10"/>
        <path d="M160.818 133.786C155.447 127.738 148.481 122.967 140.263 120.212C134.266 118.195 128.148 117.452 122.197 117.809"
              stroke="#292929" stroke-width="2" stroke-miterlimit="10"/>
    </g>
    <defs>
        <clipPath id="clip0_346_15088">
            <rect width="160.694" height="246.103" fill="white" transform="translate(65.5285) rotate(15.3742)"/>
        </clipPath>
    </defs>
</svg>